<svg width="128" height="128" viewBox="0 0 128 128" fill="none" xmlns="http://www.w3.org/2000/svg">
<rect width="128" height="128" fill="#0B1621"/>
<path d="M87.4617 53.847C89.5488 53.847 91.2408 52.2154 91.2408 50.2027C91.2408 48.1901 89.5488 46.5585 87.4617 46.5585C85.3746 46.5585 83.6826 48.1901 83.6826 50.2027C83.6826 52.2154 85.3746 53.847 87.4617 53.847Z" fill="white"/>
<path d="M84.5893 58.8731V79.6333C84.5893 80.7559 86.077 81.0495 87.5647 81.0495C89.0524 81.0495 90.54 80.7559 90.54 79.6333V58.8731C90.54 57.3705 89.0524 57.1632 87.5647 57.1632C86.0941 57.1632 84.5893 57.3705 84.5893 58.8731Z" fill="white"/>
<path d="M97.0891 48.2165V79.6331C97.0891 80.7558 98.5767 81.0494 100.064 81.0494C101.552 81.0494 103.04 80.7558 103.04 79.6331V48.2165C103.04 46.7139 101.552 46.5067 100.064 46.5067C98.5938 46.5067 97.0891 46.7139 97.0891 48.2165Z" fill="white"/>
<path d="M54.357 68.7176C54.357 62.1891 59.5211 56.3686 66.9766 56.3686C74.3979 56.3686 79.6818 62.0854 79.6818 68.6831C79.6818 75.7816 73.8166 81.0667 67.045 81.0667C59.5382 81.0494 54.357 75.2289 54.357 68.7176ZM66.9595 76.0234C70.9267 76.0234 73.9021 72.7246 73.9021 68.6658C73.9021 64.6071 70.9267 61.3946 66.9595 61.3946C62.9924 61.3946 60.0683 64.6589 60.0683 68.7176C60.0683 72.7764 62.9924 76.0234 66.9595 76.0234Z" fill="white"/>
<path d="M50.9372 74.6946C50.9372 77.8553 43.6356 81.0505 38.5569 81.0505C32.3326 81.0505 26.5015 77.6826 23.5262 72.2593C22.124 69.7377 21.44 66.8707 21.44 64.0036C21.44 60.6703 22.3805 57.3369 24.2273 54.4871C25.6979 52.2073 28.4851 49.1675 33.3928 47.544C34.624 47.1295 36.8469 46.5423 39.3435 46.5423C46.3544 46.5423 50.7662 51.4992 50.7662 55.8343C50.7662 58.805 48.3722 63.0364 42.507 63.0364C39.8223 63.0364 38.916 61.8965 38.916 60.5839C38.916 58.8222 40.5405 56.7669 41.7204 56.7669C42.2163 56.7669 42.5241 57.2678 43.4817 57.1296C44.4222 56.9915 44.9181 56.3524 44.9181 55.5579C44.9181 54.0553 43.1568 52.0519 39.4119 52.0519C38.2149 52.0519 36.8127 52.2591 35.1883 52.76C31.8538 53.779 30.0241 56.197 29.0494 57.6996C27.8182 59.5994 27.2026 61.8274 27.2026 64.0209C27.2026 65.9035 27.6643 67.7861 28.5706 69.4441C30.5371 73.002 34.4017 75.23 38.5569 75.23C44.2854 75.23 45.8927 72.1212 47.0555 71.6203C49.1075 70.7049 50.9372 73.2093 50.9372 74.6946Z" fill="white"/>
</svg>
